<svg xmlns="http://www.w3.org/2000/svg" width="56" height="52" viewBox="0 0 56 52"><g><g><g><g><path fill="#0e71e6" d="M13.041 38.944L.195 42.602v8.723l13.012-12.211z"/></g><g><path fill="#788beb" d="M23.973 38.961l-3.34-10.257 16.338-1.541z"/></g><g><path fill="#0b51ba" d="M29.35 38.46l1.546-.325 6.95-1.736 4.57-8.191z"/></g><g><path fill="#788beb" d="M33.87 45.104l-7.725-.393 11.328-4.263z"/></g><g><path fill="#5dc2f5" d="M45.363 35.756l-3.326 5.55 1.027-8.792z"/></g><g><path fill="#788beb" d="M45.291 27.883l9.115.307-5.385 2.85z"/></g><g><path fill="#6dd6f1" d="M48.875 15.93l-10.361.697 9.707 6.332z"/></g><g><path fill="#3eb9e6" d="M31.668 26.231l1.848-10.594 13.213 9.096z"/></g><g><path fill="#3eb9e6" d="M46.3 5.801l-4.544.471 6.275 6.852z"/></g><g><path fill="#6dd6f1" d="M43.518 13.735l-5.91-7.047-6.374 8.3z"/></g><g><path fill="#3eb9e6" d="M56.02 16.653l-3.327-.307-.123-5.064z"/></g><g><path fill="#5dc2f5" d="M54.912 22.188l-3.59-1.438 1.92 4.594z"/></g><g><path fill="#0b51ba" d="M47.982 44.907l-3.62-.282 4.501-2.568z"/></g><g><path fill="#0b51ba" d="M55.115 36.57l-3.236-.116 2.998-3.567z"/></g><g><path fill="#4fcbf8" d="M13.744.436l7.758 19.8 4.006-10.105L27.71 12.2l3.523 2.783-5.726-4.852L15.218.436z"/></g><g><path fill="#0156d3" d="M2.453 27.67L.195 29.854v10.7z"/></g><g><path fill="#0e71e6" d="M2.453 27.67L.195 27.4v2.454z"/></g><g><path fill="#687ff2" d="M2.453 27.67L.195 24V27.4z"/></g><g><path fill="#788beb" d="M9.17 8.725L.195 12.426V24l2.258 3.671z"/></g><g><path fill="#38b8ea" d="M.195 12.426l8.975-3.7L.195 1.291z"/></g><g><path fill="#5dc2f5" d="M.195 1.292L9.17 8.724 12.105.436H.195z"/></g><g><path fill="#0db1e7" d="M12.105.436L9.17 8.726l12.332 11.51-7.758-19.8z"/></g><g><path fill="#748afc" d="M21.502 20.237L9.17 8.725 2.453 27.67z"/></g><g><path fill="#2d86ed" d="M21.502 20.237L2.453 27.67l15.256-.955z"/></g><g><path fill="#0e71e6" d="M17.709 26.715l-15.256.955 10.588 11.268.166.176z"/></g><g><path fill="#3a57e8" d="M13.041 38.938L2.453 27.67.195 40.553v2.049z"/></g><g><path fill="#0b51ba" d="M18.37 28.698l-5.163 10.416 8.473-.47z"/></g><g><path fill="#6dd6f1" d="M29.246.706l-1.799-.27H15.22L27.71 12.2l-2.203-2.069z"/></g><g><path fill="#5dc2f5" d="M29.246.706l1.988 14.283L36.5 5.024z"/></g><g><path fill="#3eb9e6" d="M25.508 10.131l5.726 4.852L29.246.706z"/></g><g><path fill="#3eb9e6" d="M21.502 20.237l7.64 5.377 1.737-8.809z"/></g><g><path fill="#6dd6f1" d="M25.508 10.131l-4.006 10.106 9.732-5.254z"/></g><g><path fill="#788beb" d="M21.502 20.237l-3.793 6.478 11.434-1.101z"/></g><g><path fill="#0b51ba" d="M.195 51.325l4.098-3.848-4.098-4.37z"/></g><g><path fill="#0e71e6" d="M.195 43.108l4.098 4.37 8.914-8.364-.166-.17L.195 42.602z"/></g><g><path fill="#0e71e6" d="M13.041 38.944L.195 42.602v8.723l13.012-12.203z"/></g><g><path fill="#788beb" d="M23.973 38.961l-3.34-10.257 16.338-1.541z"/></g><g><path fill="#0b51ba" d="M29.35 38.46l1.546-.325 6.95-1.736 4.57-8.191z"/></g><g><path fill="#788beb" d="M33.87 45.104l-7.725-.393 11.328-4.263z"/></g><g><path fill="#5dc2f5" d="M45.363 35.756l-3.326 5.55 1.027-8.792z"/></g><g><path fill="#788beb" d="M45.291 27.883l9.115.307-5.385 2.85z"/></g><g><path fill="#6dd6f1" d="M48.875 15.93l-10.361.697 9.707 6.332z"/></g><g><path fill="#3eb9e6" d="M31.668 26.231l1.848-10.594 13.213 9.102z"/></g><g><path fill="#3eb9e6" d="M46.3 5.801l-4.544.471 6.275 6.852z"/></g><g><path fill="#6dd6f1" d="M43.518 13.735l-5.91-7.047-6.374 8.3z"/></g><g><path fill="#3eb9e6" d="M56.02 16.653l-3.327-.307-.123-5.058z"/></g><g><path fill="#5dc2f5" d="M54.912 22.188l-3.59-1.438 1.92 4.594z"/></g><g><path fill="#0b51ba" d="M47.982 44.907l-3.62-.282 4.501-2.568z"/></g><g><path fill="#0b51ba" d="M55.115 36.57l-3.236-.116 2.998-3.567z"/></g><g><path fill="#4fcbf8" d="M13.744.436l7.758 19.8 4.006-10.105 2.203 2.075 3.523 2.783-5.726-4.858L15.218.436z"/></g><g><path fill="#0156d3" d="M2.453 27.67L.195 29.854v10.7z"/></g><g><path fill="#0e71e6" d="M2.453 27.67L.195 27.4v2.454z"/></g><g><path fill="#687ff2" d="M2.453 27.67L.195 24V27.4z"/></g><g><path fill="#788beb" d="M9.17 8.725L.195 12.426V24l2.258 3.671z"/></g><g><path fill="#38b8ea" d="M.195 12.426l8.975-3.7L.195 1.291z"/></g><g><path fill="#5dc2f5" d="M.195 1.292L9.17 8.724 12.105.436H.195z"/></g><g><path fill="#0db1e7" d="M12.111.436L9.17 8.726l12.332 11.51-7.758-19.8z"/></g><g><path fill="#748afc" d="M21.502 20.237L9.17 8.725 2.453 27.67z"/></g><g><path fill="#2d86ed" d="M21.502 20.237L2.453 27.67l15.256-.949z"/></g><g><path fill="#0e71e6" d="M17.709 26.721l-15.256.95 10.588 11.273.166.17z"/></g><g><path fill="#3a57e8" d="M13.041 38.944L2.453 27.67.195 40.553v2.049z"/></g><g><path fill="#0b51ba" d="M18.37 28.698l-5.163 10.416 8.473-.47z"/></g><g><path fill="#6dd6f1" d="M29.246.706l-1.805-.27H15.22l12.492 11.77-2.203-2.075z"/></g><g><path fill="#5dc2f5" d="M29.246.706l1.988 14.283L36.5 5.024z"/></g><g><path fill="#3eb9e6" d="M25.508 10.131l5.726 4.858L29.246.706z"/></g><g><path fill="#3eb9e6" d="M21.502 20.237l7.64 5.377 1.737-8.809z"/></g><g><path fill="#6dd6f1" d="M25.508 10.131l-4.006 10.106 9.732-5.248z"/></g><g><path fill="#788beb" d="M21.502 20.237l-3.793 6.484 11.434-1.107z"/></g><g><path fill="#0b51ba" d="M.195 51.325l4.098-3.848-4.098-4.37z"/></g><g><path fill="#0e71e6" d="M.195 43.108l4.098 4.37 8.914-8.356-.166-.178L.195 42.602z"/></g></g></g></g></svg>