<svg xmlns="http://www.w3.org/2000/svg" width="57" height="51" viewBox="0 0 57 51"><g><g><g><g><path fill="#0e71e6" d="M43.314 12.38L56.16 8.724V0L43.148 12.21z"/></g><g><path fill="#788beb" d="M32.383 12.363l3.34 10.258-16.338 1.541z"/></g><g><path fill="#0b51ba" d="M27.006 12.865l-1.547.324-6.95 1.737-4.57 8.191z"/></g><g><path fill="#788beb" d="M22.486 6.22l7.725.393-11.328 4.264z"/></g><g><path fill="#5dc2f5" d="M10.992 15.568l3.326-5.548-1.027 8.79z"/></g><g><path fill="#788beb" d="M11.064 23.441l-9.115-.306 5.385-2.85z"/></g><g><path fill="#6dd6f1" d="M7.48 35.395l10.362-.698-9.707-6.332z"/></g><g><path fill="#3eb9e6" d="M24.688 25.094L22.84 35.687 9.627 26.592z"/></g><g><path fill="#3eb9e6" d="M10.055 45.523l4.545-.47L8.324 38.2z"/></g><g><path fill="#6dd6f1" d="M12.838 37.59l5.91 7.047 6.373-8.301z"/></g><g><path fill="#3eb9e6" d="M.336 34.672l3.326.306.123 5.065z"/></g><g><path fill="#5dc2f5" d="M1.443 29.137l3.59 1.437-1.92-4.594z"/></g><g><path fill="#0b51ba" d="M8.373 6.418l3.621.281-4.502 2.569z"/></g><g><path fill="#0b51ba" d="M1.24 14.754l3.237.117-2.998 3.567z"/></g><g><path fill="#4fcbf8" d="M42.611 50.889l-7.757-19.801-4.006 10.105-2.203-2.068-3.524-2.783 5.727 4.851 10.289 9.696z"/></g><g><path fill="#0156d3" d="M53.902 23.654l2.258-2.183v-10.7z"/></g><g><path fill="#0e71e6" d="M53.902 23.654l2.258.27V21.47z"/></g><g><path fill="#687ff2" d="M53.902 23.654l2.258 3.672v-3.402z"/></g><g><path fill="#788beb" d="M47.186 42.6l8.974-3.702V27.326l-2.258-3.672z"/></g><g><path fill="#38b8ea" d="M56.16 38.898L47.186 42.6l8.974 7.433z"/></g><g><path fill="#5dc2f5" d="M56.16 50.033L47.186 42.6l-2.936 8.289h11.91z"/></g><g><path fill="#0db1e7" d="M44.25 50.889l2.936-8.29-12.332-11.511 7.757 19.8z"/></g><g><path fill="#748afc" d="M34.854 31.088L47.186 42.6l6.716-18.946z"/></g><g><path fill="#2d86ed" d="M34.854 31.088l19.048-7.434-15.256.955z"/></g><g><path fill="#0e71e6" d="M38.646 24.61l15.256-.956-10.588-11.267-.166-.176z"/></g><g><path fill="#3a57e8" d="M43.314 12.387l10.588 11.267 2.258-12.883V8.723z"/></g><g><path fill="#0b51ba" d="M37.986 22.627l5.162-10.416-8.472.47z"/></g><g><path fill="#6dd6f1" d="M27.11 50.62l1.798.269h12.229L28.645 39.125l2.203 2.068z"/></g><g><path fill="#5dc2f5" d="M27.11 50.62L25.12 36.335 19.855 46.3z"/></g><g><path fill="#3eb9e6" d="M30.848 41.193l-5.727-4.851 1.988 14.277z"/></g><g><path fill="#3eb9e6" d="M34.854 31.088l-7.641-5.377-1.736 8.809z"/></g><g><path fill="#6dd6f1" d="M30.848 41.193l4.006-10.105-9.733 5.254z"/></g><g><path fill="#788beb" d="M34.854 31.088l3.792-6.479-11.433 1.102z"/></g><g><path fill="#0b51ba" d="M56.16 0l-4.097 3.848 4.097 4.369z"/></g><g><path fill="#0e71e6" d="M56.16 8.217l-4.097-4.37-8.915 8.364.166.17L56.16 8.723z"/></g><g><path fill="#0e71e6" d="M43.314 12.38L56.16 8.724V0L43.148 12.203z"/></g><g><path fill="#788beb" d="M32.383 12.363l3.34 10.258-16.338 1.541z"/></g><g><path fill="#0b51ba" d="M27.006 12.865l-1.547.324-6.95 1.737-4.57 8.191z"/></g><g><path fill="#788beb" d="M22.486 6.22l7.725.393-11.328 4.264z"/></g><g><path fill="#5dc2f5" d="M10.992 15.568l3.326-5.548-1.027 8.79z"/></g><g><path fill="#788beb" d="M11.064 23.441l-9.115-.306 5.385-2.85z"/></g><g><path fill="#6dd6f1" d="M7.48 35.395l10.362-.698-9.707-6.332z"/></g><g><path fill="#3eb9e6" d="M24.688 25.094L22.84 35.687 9.627 26.586z"/></g><g><path fill="#3eb9e6" d="M10.055 45.523l4.545-.47L8.324 38.2z"/></g><g><path fill="#6dd6f1" d="M12.838 37.59l5.91 7.047 6.373-8.301z"/></g><g><path fill="#3eb9e6" d="M.336 34.672l3.326.306.123 5.06z"/></g><g><path fill="#5dc2f5" d="M1.443 29.137l3.59 1.437-1.92-4.594z"/></g><g><path fill="#0b51ba" d="M8.373 6.418l3.621.281-4.502 2.569z"/></g><g><path fill="#0b51ba" d="M1.24 14.754l3.237.117-2.998 3.567z"/></g><g><path fill="#4fcbf8" d="M42.611 50.889l-7.757-19.801-4.006 10.105-2.203-2.074-3.524-2.783 5.727 4.857 10.289 9.696z"/></g><g><path fill="#0156d3" d="M53.902 23.654l2.258-2.183v-10.7z"/></g><g><path fill="#0e71e6" d="M53.902 23.654l2.258.27V21.47z"/></g><g><path fill="#687ff2" d="M53.902 23.654l2.258 3.672v-3.402z"/></g><g><path fill="#788beb" d="M47.186 42.6l8.974-3.702V27.326l-2.258-3.672z"/></g><g><path fill="#38b8ea" d="M56.16 38.898L47.186 42.6l8.974 7.433z"/></g><g><path fill="#5dc2f5" d="M56.16 50.033L47.186 42.6l-2.936 8.289h11.91z"/></g><g><path fill="#0db1e7" d="M44.244 50.889l2.942-8.29-12.332-11.511 7.757 19.8z"/></g><g><path fill="#748afc" d="M34.854 31.088L47.186 42.6l6.716-18.946z"/></g><g><path fill="#2d86ed" d="M34.854 31.088l19.048-7.434-15.256.95z"/></g><g><path fill="#0e71e6" d="M38.646 24.604l15.256-.95-10.588-11.273-.166-.17z"/></g><g><path fill="#3a57e8" d="M43.314 12.38l10.588 11.274 2.258-12.883V8.723z"/></g><g><path fill="#0b51ba" d="M37.986 22.627l5.162-10.416-8.472.47z"/></g><g><path fill="#6dd6f1" d="M27.11 50.62l1.804.269h12.223l-12.492-11.77 2.203 2.074z"/></g><g><path fill="#5dc2f5" d="M27.11 50.62L25.12 36.335 19.855 46.3z"/></g><g><path fill="#3eb9e6" d="M30.848 41.193l-5.727-4.857 1.988 14.283z"/></g><g><path fill="#3eb9e6" d="M34.854 31.088l-7.641-5.377-1.736 8.809z"/></g><g><path fill="#6dd6f1" d="M30.848 41.193l4.006-10.105-9.733 5.248z"/></g><g><path fill="#788beb" d="M34.854 31.088l3.792-6.485-11.433 1.108z"/></g><g><path fill="#0b51ba" d="M56.16 0l-4.097 3.848 4.097 4.369z"/></g><g><path fill="#0e71e6" d="M56.16 8.217l-4.097-4.37-8.915 8.356.166.178L56.16 8.723z"/></g></g></g></g></svg>