<svg xmlns="http://www.w3.org/2000/svg" width="13" height="12" viewBox="0 0 13 12"><g><g><g><g><path fill="#353167" d="M11.295 7.34a1.28 1.28 0 0 1-1.278 1.278H9.86a.426.426 0 0 0-.426.426v1.503L7.63 8.743a.426.426 0 0 0-.301-.125h-5.2A1.28 1.28 0 0 1 .852 7.34V2.472A1.28 1.28 0 0 1 2.13 1.193h7.887a1.28 1.28 0 0 1 1.278 1.279zM2.13.34C.955.34 0 1.298 0 2.473V7.34c0 1.175.955 2.13 2.13 2.13h5.023l2.405 2.407a.426.426 0 0 0 .728-.302V9.454a2.134 2.134 0 0 0 1.86-2.114V2.472c0-1.175-.955-2.131-2.129-2.131z"/></g><g><path fill="#353167" d="M9.142 3.352H3.005a.428.428 0 0 0-.417.438c0 .243.186.439.417.439h6.137c.23 0 .417-.196.417-.439a.428.428 0 0 0-.417-.438z"/></g><g><path fill="#353167" d="M9.142 5.733H3.005a.428.428 0 0 0-.417.438c0 .243.186.439.417.439h6.137c.23 0 .417-.196.417-.439a.428.428 0 0 0-.417-.438z"/></g></g></g></g></svg>