<svg xmlns="http://www.w3.org/2000/svg" width="273.659" height="273.659" viewBox="0 0 273.659 273.659">
    <defs>
        <style>
            .cls-1{fill:#2a84eb;fill-rule:evenodd}
        </style>
    </defs>
    <g id="cta-img2" transform="translate(-140 -70)">
        <path id="Combined-Shape-Copy-6" d="M266.362 266.362v-3.649h3.649v3.649h3.649v3.649h-3.65v3.649h-3.649v-3.65h-3.649v-3.649zm-29.19 0v-3.649h3.649v3.649h3.649v3.649h-3.65v3.649h-3.649v-3.65h-3.649v-3.649zm-29.19 0v-3.649h3.649v3.649h3.649v3.649h-3.65v3.649h-3.649v-3.65h-3.649v-3.649zm-29.19 0v-3.649h3.649v3.649h3.649v3.649h-3.649v3.649h-3.649v-3.65h-3.649v-3.649zm-29.19 0v-3.649h3.649v3.649h3.649v3.649h-3.649v3.649H149.6v-3.65h-3.649v-3.649zm-29.19 0v-3.649h3.649v3.649h3.649v3.649h-3.649v3.649h-3.651v-3.65h-3.649v-3.649zm-29.19 0v-3.649h3.649v3.649h3.649v3.649h-3.651v3.649H91.22v-3.65h-3.649v-3.649zm-29.19 0v-3.649h3.649v3.649h3.649v3.649h-3.652v3.649h-3.649v-3.65h-3.648v-3.649zm-29.19 0v-3.649h3.649v3.649h3.649v3.649h-3.652v3.649h-3.649v-3.65H29.19v-3.649zm-29.19 0v-3.649H7.3v3.649h3.649v3.649H7.3v3.649H3.649v-3.65H0v-3.649zm262.713-29.19v-3.649h3.649v3.649h3.649v3.649h-3.653v3.649h-3.649v-3.65h-3.649v-3.649zm-29.19 0v-3.649h3.649v3.649h3.649v3.649h-3.653v3.649h-3.649v-3.65h-3.649v-3.649zm-29.19 0v-3.649h3.649v3.649h3.649v3.649h-3.653v3.649h-3.649v-3.65h-3.649v-3.649zm-29.19 0v-3.649h3.649v3.649h3.649v3.649h-3.649v3.649h-3.649v-3.65h-3.649v-3.649zm-29.19 0v-3.649h3.649v3.649h3.646v3.649h-3.649v3.649H149.6v-3.65h-3.649v-3.649zm-29.19 0v-3.649h3.649v3.649h3.649v3.649h-3.649v3.649h-3.654v-3.65h-3.649v-3.649zm-29.19 0v-3.649h3.649v3.649h3.649v3.649h-3.654v3.649H91.22v-3.65h-3.649v-3.649zm-29.19 0v-3.649h3.649v3.649h3.649v3.649h-3.655v3.649h-3.649v-3.65h-3.648v-3.649zm-29.19 0v-3.649h3.649v3.649h3.649v3.649h-3.655v3.649h-3.649v-3.65H29.19v-3.649zm-29.19 0v-3.649H7.3v3.649h3.649v3.649H7.3v3.649H3.649v-3.65H0v-3.649zm262.713-29.19v-3.649h3.649v3.649h3.649v3.649h-3.656v3.649h-3.649v-3.65h-3.649v-3.649zm-29.19 0v-3.649h3.649v3.649h3.649v3.649h-3.656v3.649h-3.649v-3.65h-3.649v-3.649zm-29.19 0v-3.649h3.649v3.649h3.649v3.649h-3.656v3.649h-3.649v-3.65h-3.649v-3.649zm-29.19 0v-3.649h3.649v3.649h3.649v3.649h-3.649v3.649h-3.649v-3.65h-3.649v-3.649zm-29.19 0v-3.649h3.649v3.649h3.643v3.649h-3.649v3.649H149.6v-3.65h-3.649v-3.649zm-29.19 0v-3.649h3.649v3.649h3.649v3.649h-3.649v3.649h-3.657v-3.65h-3.649v-3.649zm-29.19 0v-3.649h3.649v3.649h3.649v3.649h-3.657v3.649H91.22v-3.65h-3.649v-3.649zm-29.19 0v-3.649h3.649v3.649h3.649v3.649h-3.658v3.649h-3.649v-3.65h-3.648v-3.649zm-29.19 0v-3.649h3.649v3.649h3.649v3.649h-3.658v3.649h-3.649v-3.65H29.19v-3.649zm-29.19 0v-3.649H7.3v3.649h3.649v3.649H7.3v3.649H3.649v-3.65H0v-3.649zm262.713-29.19v-3.649h3.649v3.649h3.649v3.649h-3.659v3.649h-3.649v-3.649h-3.649v-3.649zm-29.19 0v-3.649h3.649v3.649h3.649v3.649h-3.659v3.649h-3.649v-3.649h-3.649v-3.649zm-29.19 0v-3.649h3.649v3.649h3.649v3.649h-3.659v3.649h-3.649v-3.649h-3.649v-3.649zm-29.19 0v-3.649h3.649v3.649h3.649v3.649h-3.649v3.649h-3.649v-3.649h-3.649v-3.649zm-29.19 0v-3.649h3.649v3.649h3.64v3.649h-3.649v3.649H149.6v-3.649h-3.649v-3.649zm-29.19 0v-3.649h3.649v3.649h3.649v3.649h-3.649v3.649h-3.66v-3.649h-3.649v-3.649zm-29.19 0v-3.649h3.649v3.649h3.649v3.649h-3.66v3.649H91.22v-3.649h-3.649v-3.649zm-29.19 0v-3.649h3.649v3.649h3.649v3.649h-3.661v3.649h-3.649v-3.649h-3.648v-3.649zm-29.19 0v-3.649H36.5v3.649h3.649v3.649h-3.661v3.649h-3.649v-3.649H29.19v-3.649zm-29.19 0v-3.649H7.3v3.649h3.649v3.649H7.3v3.649H3.649v-3.649H0v-3.649zM266.362 149.6v-3.649h3.649v3.649h3.649v3.649h-3.65v3.651h-3.649v-3.649h-3.649V149.6zm-29.19 0v-3.649h3.649v3.649h3.649v3.649h-3.65v3.651h-3.649v-3.649h-3.649V149.6zm-29.19 0v-3.649h3.649v3.649h3.649v3.649h-3.65v3.651h-3.649v-3.649h-3.649V149.6zm-29.19 0v-3.649h3.649v3.649h3.649v3.649h-3.649v3.651h-3.649v-3.649h-3.649V149.6zm-29.19 0v-3.649h3.649v3.649h3.649v3.649h-3.649v3.651H149.6v-3.649h-3.649V149.6zm-29.19 0v-3.649h3.649v3.649h3.649v3.649h-3.649v3.651h-3.651v-3.649h-3.649V149.6zm-29.19 0v-3.649h3.649v3.649h3.649v3.649h-3.651v3.651H91.22v-3.649h-3.649V149.6zm-29.19 0v-3.649h3.649v3.649h3.649v3.649h-3.652v3.651h-3.649v-3.649h-3.648V149.6zm-29.19 0v-3.649h3.649v3.649h3.649v3.649h-3.652v3.651h-3.649v-3.649H29.19V149.6zm-29.19 0v-3.649H7.3v3.649h3.649v3.649H7.3v3.651H3.649v-3.649H0V149.6zm262.713-29.19v-3.649h3.649v3.649h3.649v3.649h-3.653v3.649h-3.649v-3.649h-3.649v-3.649zm-29.19 0v-3.649h3.649v3.649h3.649v3.649h-3.653v3.649h-3.649v-3.649h-3.649v-3.649zm-29.19 0v-3.649h3.649v3.649h3.649v3.649h-3.653v3.649h-3.649v-3.649h-3.649v-3.649zm-29.19 0v-3.649h3.649v3.649h3.649v3.649h-3.649v3.649h-3.649v-3.649h-3.649v-3.649zm-29.19 0v-3.649h3.649v3.649h3.646v3.649h-3.649v3.649H149.6v-3.649h-3.649v-3.649zm-29.19 0v-3.649h3.649v3.649h3.649v3.649h-3.649v3.649h-3.654v-3.649h-3.649v-3.649zm-29.19 0v-3.649h3.649v3.649h3.649v3.649h-3.654v3.649H91.22v-3.649h-3.649v-3.649zm-29.19 0v-3.649h3.649v3.649h3.649v3.649h-3.655v3.649h-3.649v-3.649h-3.648v-3.649zm-29.19 0v-3.649h3.649v3.649h3.649v3.649h-3.655v3.649h-3.649v-3.649H29.19v-3.649zm-29.19 0v-3.649H7.3v3.649h3.649v3.649H7.3v3.649H3.649v-3.649H0v-3.649zm262.707-29.19v-3.649h3.649v3.649h3.649v3.649h-3.65v3.649h-3.649v-3.649h-3.649V91.22zm-29.19 0v-3.649h3.649v3.649h3.649v3.649h-3.65v3.649h-3.649v-3.649h-3.649V91.22zm-29.19 0v-3.649h3.649v3.649h3.649v3.649h-3.65v3.649h-3.649v-3.649h-3.649V91.22zm-29.19 0v-3.649h3.649v3.649h3.649v3.649h-3.649v3.649h-3.649v-3.649h-3.649V91.22zm-29.19 0v-3.649h3.649v3.649h3.649v3.649h-3.649v3.649H149.6v-3.649h-3.649V91.22zm-29.19 0v-3.649h3.649v3.649h3.649v3.649h-3.649v3.649h-3.651v-3.649h-3.649V91.22zm-29.19 0v-3.649h3.649v3.649h3.649v3.649h-3.651v3.649H91.22v-3.649h-3.649V91.22zm-29.19 0v-3.649h3.649v3.649h3.649v3.649h-3.652v3.649h-3.649v-3.649h-3.648V91.22zm-29.19 0v-3.649h3.649v3.649h3.649v3.649h-3.652v3.649h-3.649v-3.649H29.19V91.22zm-29.19 0v-3.649H7.3v3.649h3.649v3.649H7.3v3.649H3.649v-3.649H0V91.22zm262.713-29.19v-3.649h3.649v3.649h3.649v3.649h-3.653v3.649h-3.649v-3.65h-3.649v-3.649zm-29.19 0v-3.649h3.649v3.649h3.649v3.649h-3.653v3.649h-3.649v-3.65h-3.649v-3.649zm-29.19 0v-3.649h3.649v3.649h3.649v3.649h-3.653v3.649h-3.649v-3.65h-3.649v-3.649zm-29.19 0v-3.649h3.649v3.649h3.649v3.649h-3.649v3.649h-3.649v-3.65h-3.649v-3.649zm-29.19 0v-3.649h3.649v3.649h3.646v3.649h-3.649v3.649H149.6v-3.65h-3.649v-3.649zm-29.19 0v-3.649h3.649v3.649h3.649v3.649h-3.649v3.649h-3.654v-3.65h-3.649v-3.649zm-29.19 0v-3.649h3.649v3.649h3.649v3.649h-3.654v3.649H91.22v-3.65h-3.649v-3.649zm-29.19 0v-3.649h3.649v3.649h3.649v3.649h-3.655v3.649h-3.649v-3.65h-3.648v-3.649zm-29.19 0v-3.649h3.649v3.649h3.649v3.649h-3.655v3.649h-3.649v-3.65H29.19v-3.649zm-29.19 0v-3.649H7.3v3.649h3.649v3.649H7.3v3.649H3.649v-3.65H0v-3.649zm262.713-29.19v-3.65h3.649v3.649h3.649v3.649h-3.656v3.649h-3.649v-3.649h-3.649v-3.649zm-29.19 0v-3.65h3.649v3.649h3.649v3.649h-3.656v3.649h-3.649v-3.649h-3.649v-3.649zm-29.19 0v-3.65h3.649v3.649h3.649v3.649h-3.656v3.649h-3.649v-3.649h-3.649v-3.649zm-29.19 0v-3.65h3.649v3.649h3.649v3.649h-3.649v3.649h-3.649v-3.649h-3.649v-3.649zm-29.19 0v-3.65h3.649v3.649h3.643v3.649h-3.649v3.649H149.6v-3.649h-3.649v-3.649zm-29.19 0v-3.65h3.649v3.649h3.649v3.649h-3.649v3.649h-3.657v-3.649h-3.649v-3.649zm-29.19 0v-3.65h3.649v3.649h3.649v3.649h-3.657v3.649H91.22v-3.649h-3.649v-3.649zm-29.19 0v-3.65h3.649v3.649h3.649v3.649h-3.658v3.649h-3.649v-3.649h-3.648v-3.649zm-29.19 0v-3.65h3.649v3.649h3.649v3.649h-3.658v3.649h-3.649v-3.649H29.19v-3.649zm-29.19 0v-3.65H7.3v3.649h3.649v3.649H7.3v3.649H3.649v-3.649H0v-3.649zM266.362 3.649V0h3.649v3.649h3.649V7.3h-3.65v3.649h-3.649V7.3h-3.649V3.649zm-29.19 0V0h3.649v3.649h3.649V7.3h-3.65v3.649h-3.649V7.3h-3.649V3.649zm-29.19 0V0h3.649v3.649h3.649V7.3h-3.65v3.649h-3.649V7.3h-3.649V3.649zm-29.19 0V0h3.649v3.649h3.649V7.3h-3.649v3.649h-3.649V7.3h-3.649V3.649zm-29.19 0V0h3.649v3.649h3.649V7.3h-3.649v3.649H149.6V7.3h-3.649V3.649zm-29.19 0V0h3.649v3.649h3.649V7.3h-3.649v3.649h-3.651V7.3h-3.649V3.649zm-29.19 0V0h3.649v3.649h3.649V7.3h-3.651v3.649H91.22V7.3h-3.649V3.649zm-29.19 0V0h3.649v3.649h3.649V7.3h-3.652v3.649h-3.649V7.3h-3.648V3.649zm-29.19 0V0h3.649v3.649h3.649V7.3h-3.652v3.649h-3.649V7.3H29.19V3.649zm-29.19 0V0H7.3v3.649h3.649V7.3H7.3v3.649H3.649V7.3H0V3.649z" class="cls-1" transform="translate(140 70)"/>
    </g>
</svg>
