<svg xmlns="http://www.w3.org/2000/svg" width="252" height="252" viewBox="0 0 252 252">
    <defs>
        <style>
            .cls-1{opacity:.299}.cls-2{fill:#fff;fill-rule:evenodd}
        </style>
    </defs>
    <g id="cta-img5" class="cls-1">
        <path id="Combined-Shape-Copy-3" d="M3.987 7.975a3.987 3.987 0 1 1 3.988-3.988 3.987 3.987 0 0 1-3.988 3.988zm27.114 0a3.987 3.987 0 1 1 3.987-3.987A3.987 3.987 0 0 1 31.1 7.975zm27.114 0A3.987 3.987 0 1 1 62.2 3.987a3.987 3.987 0 0 1-3.985 3.988zm27.114 0a3.987 3.987 0 1 1 3.987-3.987 3.987 3.987 0 0 1-3.987 3.987zm27.114 0a3.987 3.987 0 1 1 3.987-3.987 3.987 3.987 0 0 1-3.987 3.987zm27.114 0a3.987 3.987 0 1 1 3.987-3.987 3.987 3.987 0 0 1-3.987 3.987zm27.114 0a3.987 3.987 0 1 1 3.987-3.987 3.987 3.987 0 0 1-3.987 3.987zm27.114 0a3.987 3.987 0 1 1 3.987-3.987 3.987 3.987 0 0 1-3.987 3.987zm27.114 0a3.987 3.987 0 1 1 3.987-3.987 3.987 3.987 0 0 1-3.986 3.987zm27.114 0A3.987 3.987 0 1 1 252 3.987a3.987 3.987 0 0 1-3.987 3.988zM3.987 35.089A3.987 3.987 0 1 1 7.975 31.1a3.987 3.987 0 0 1-3.988 3.989zm27.114 0a3.987 3.987 0 1 1 3.988-3.989 3.987 3.987 0 0 1-3.989 3.989zm27.114 0A3.987 3.987 0 1 1 62.2 31.1a3.987 3.987 0 0 1-3.985 3.989zm27.114 0a3.987 3.987 0 1 1 3.987-3.989 3.987 3.987 0 0 1-3.987 3.989zm27.114 0a3.987 3.987 0 1 1 3.987-3.989 3.987 3.987 0 0 1-3.987 3.989zm27.114 0a3.987 3.987 0 1 1 3.987-3.987 3.987 3.987 0 0 1-3.987 3.987zm27.114 0a3.987 3.987 0 1 1 3.987-3.987 3.987 3.987 0 0 1-3.987 3.987zm27.114 0a3.987 3.987 0 1 1 3.987-3.987 3.987 3.987 0 0 1-3.987 3.987zm27.114 0a3.987 3.987 0 1 1 3.987-3.987 3.987 3.987 0 0 1-3.986 3.987zm27.114 0A3.987 3.987 0 1 1 252 31.1a3.987 3.987 0 0 1-3.987 3.989zM3.987 62.2a3.987 3.987 0 1 1 3.987-3.987A3.987 3.987 0 0 1 3.987 62.2zm27.114 0a3.987 3.987 0 1 1 3.987-3.987A3.987 3.987 0 0 1 31.1 62.2zm27.114 0a3.987 3.987 0 1 1 3.985-3.985 3.987 3.987 0 0 1-3.985 3.985zm27.114 0a3.987 3.987 0 1 1 3.987-3.987 3.987 3.987 0 0 1-3.987 3.987zm27.114 0a3.987 3.987 0 1 1 3.987-3.987 3.987 3.987 0 0 1-3.987 3.987zm27.114 0a3.987 3.987 0 1 1 3.987-3.987 3.987 3.987 0 0 1-3.987 3.987zm27.114 0a3.987 3.987 0 1 1 3.987-3.987 3.987 3.987 0 0 1-3.987 3.987zm27.114 0a3.987 3.987 0 1 1 3.987-3.987 3.987 3.987 0 0 1-3.987 3.987zm27.114 0a3.987 3.987 0 1 1 3.987-3.987A3.987 3.987 0 0 1 220.9 62.2zm27.114 0A3.987 3.987 0 1 1 252 58.215a3.987 3.987 0 0 1-3.987 3.985zM3.987 89.316a3.987 3.987 0 1 1 3.987-3.987 3.987 3.987 0 0 1-3.987 3.987zm27.114 0a3.987 3.987 0 1 1 3.987-3.987 3.987 3.987 0 0 1-3.988 3.987zm27.114 0a3.987 3.987 0 1 1 3.985-3.987 3.987 3.987 0 0 1-3.985 3.987zm27.114 0a3.987 3.987 0 1 1 3.987-3.987 3.987 3.987 0 0 1-3.987 3.987zm27.114 0a3.987 3.987 0 1 1 3.987-3.987 3.987 3.987 0 0 1-3.987 3.987zm27.114 0a3.987 3.987 0 1 1 3.987-3.987 3.987 3.987 0 0 1-3.987 3.987zm27.114 0a3.987 3.987 0 1 1 3.987-3.987 3.987 3.987 0 0 1-3.987 3.987zm27.114 0a3.987 3.987 0 1 1 3.987-3.987 3.987 3.987 0 0 1-3.987 3.987zm27.114 0a3.987 3.987 0 1 1 3.987-3.987 3.987 3.987 0 0 1-3.986 3.987zm27.114 0A3.987 3.987 0 1 1 252 85.329a3.987 3.987 0 0 1-3.987 3.987zM3.987 116.43a3.987 3.987 0 1 1 3.987-3.987 3.987 3.987 0 0 1-3.987 3.987zm27.114 0a3.987 3.987 0 1 1 3.987-3.987 3.987 3.987 0 0 1-3.988 3.987zm27.114 0a3.987 3.987 0 1 1 3.987-3.987 3.987 3.987 0 0 1-3.987 3.987zm27.114 0a3.987 3.987 0 1 1 3.987-3.987 3.987 3.987 0 0 1-3.987 3.987zm27.114 0a3.987 3.987 0 1 1 3.987-3.987 3.987 3.987 0 0 1-3.987 3.987zm27.114 0a3.987 3.987 0 1 1 3.987-3.987 3.987 3.987 0 0 1-3.987 3.987zm27.114 0a3.987 3.987 0 1 1 3.987-3.987 3.987 3.987 0 0 1-3.987 3.987zm27.114 0a3.987 3.987 0 1 1 3.987-3.987 3.987 3.987 0 0 1-3.987 3.987zm27.114 0a3.987 3.987 0 1 1 3.987-3.987 3.987 3.987 0 0 1-3.986 3.987zm27.114 0a3.987 3.987 0 1 1 3.987-3.987 3.987 3.987 0 0 1-3.987 3.987zM3.987 143.544a3.987 3.987 0 1 1 3.987-3.987 3.987 3.987 0 0 1-3.987 3.987zm27.114 0a3.987 3.987 0 1 1 3.987-3.987 3.987 3.987 0 0 1-3.988 3.987zm27.114 0a3.987 3.987 0 1 1 3.987-3.987 3.987 3.987 0 0 1-3.987 3.987zm27.114 0a3.987 3.987 0 1 1 3.987-3.987 3.987 3.987 0 0 1-3.987 3.987zm27.114 0a3.987 3.987 0 1 1 3.987-3.987 3.987 3.987 0 0 1-3.987 3.987zm27.114 0a3.987 3.987 0 1 1 3.987-3.987 3.987 3.987 0 0 1-3.987 3.987zm27.114 0a3.987 3.987 0 1 1 3.987-3.987 3.987 3.987 0 0 1-3.987 3.987zm27.114 0a3.987 3.987 0 1 1 3.987-3.987 3.987 3.987 0 0 1-3.987 3.987zm27.114 0a3.987 3.987 0 1 1 3.987-3.987 3.987 3.987 0 0 1-3.986 3.987zm27.114 0a3.987 3.987 0 1 1 3.987-3.987 3.987 3.987 0 0 1-3.987 3.987zM3.987 170.658a3.987 3.987 0 1 1 3.987-3.987 3.987 3.987 0 0 1-3.987 3.987zm27.114 0a3.987 3.987 0 1 1 3.987-3.987 3.987 3.987 0 0 1-3.988 3.987zm27.114 0a3.987 3.987 0 1 1 3.987-3.987 3.987 3.987 0 0 1-3.987 3.987zm27.114 0a3.987 3.987 0 1 1 3.987-3.987 3.987 3.987 0 0 1-3.987 3.987zm27.114 0a3.987 3.987 0 1 1 3.987-3.987 3.987 3.987 0 0 1-3.987 3.987zm27.114 0a3.987 3.987 0 1 1 3.987-3.987 3.987 3.987 0 0 1-3.987 3.987zm27.114 0a3.987 3.987 0 1 1 3.987-3.987 3.987 3.987 0 0 1-3.987 3.987zm27.114 0a3.987 3.987 0 1 1 3.987-3.987 3.987 3.987 0 0 1-3.987 3.987zm27.114 0a3.987 3.987 0 1 1 3.987-3.987 3.987 3.987 0 0 1-3.986 3.987zm27.114 0a3.987 3.987 0 1 1 3.987-3.987 3.987 3.987 0 0 1-3.987 3.987zM3.987 197.772a3.987 3.987 0 1 1 3.987-3.987 3.987 3.987 0 0 1-3.987 3.987zm27.114 0a3.987 3.987 0 1 1 3.987-3.987 3.987 3.987 0 0 1-3.988 3.987zm27.114 0a3.987 3.987 0 1 1 3.987-3.987 3.987 3.987 0 0 1-3.987 3.987zm27.114 0a3.987 3.987 0 1 1 3.987-3.987 3.987 3.987 0 0 1-3.987 3.987zm27.114 0a3.987 3.987 0 1 1 3.987-3.987 3.987 3.987 0 0 1-3.987 3.987zm27.114 0a3.987 3.987 0 1 1 3.987-3.987 3.987 3.987 0 0 1-3.987 3.987zm27.114 0a3.987 3.987 0 1 1 3.987-3.987 3.987 3.987 0 0 1-3.987 3.987zm27.114 0a3.987 3.987 0 1 1 3.987-3.987 3.987 3.987 0 0 1-3.987 3.987zm27.114 0a3.987 3.987 0 1 1 3.987-3.987 3.987 3.987 0 0 1-3.986 3.987zm27.114 0a3.987 3.987 0 1 1 3.987-3.987 3.987 3.987 0 0 1-3.987 3.987zM3.987 224.886a3.987 3.987 0 1 1 3.988-3.986 3.987 3.987 0 0 1-3.988 3.986zm27.114 0a3.987 3.987 0 1 1 3.987-3.987 3.987 3.987 0 0 1-3.988 3.987zm27.114 0A3.987 3.987 0 1 1 62.2 220.9a3.987 3.987 0 0 1-3.985 3.986zm27.114 0a3.987 3.987 0 1 1 3.987-3.987 3.987 3.987 0 0 1-3.987 3.987zm27.114 0a3.987 3.987 0 1 1 3.987-3.987 3.987 3.987 0 0 1-3.987 3.987zm27.114 0a3.987 3.987 0 1 1 3.987-3.987 3.987 3.987 0 0 1-3.987 3.987zm27.114 0a3.987 3.987 0 1 1 3.987-3.987 3.987 3.987 0 0 1-3.987 3.987zm27.114 0a3.987 3.987 0 1 1 3.987-3.987 3.987 3.987 0 0 1-3.987 3.987zm27.114 0a3.987 3.987 0 1 1 3.987-3.987 3.987 3.987 0 0 1-3.986 3.987zm27.114 0A3.987 3.987 0 1 1 252 220.9a3.987 3.987 0 0 1-3.987 3.986zM3.987 252a3.987 3.987 0 1 1 3.987-3.987A3.987 3.987 0 0 1 3.987 252zm27.113 0a3.987 3.987 0 1 1 3.987-3.987A3.987 3.987 0 0 1 31.1 252zm27.114 0a3.987 3.987 0 1 1 3.987-3.987A3.987 3.987 0 0 1 58.215 252zm27.114 0a3.987 3.987 0 1 1 3.987-3.987A3.987 3.987 0 0 1 85.329 252zm27.114 0a3.987 3.987 0 1 1 3.987-3.987 3.987 3.987 0 0 1-3.986 3.987zm27.114 0a3.987 3.987 0 1 1 3.987-3.987 3.987 3.987 0 0 1-3.986 3.987zm27.114 0a3.987 3.987 0 1 1 3.987-3.987 3.987 3.987 0 0 1-3.986 3.987zm27.114 0a3.987 3.987 0 1 1 3.987-3.987 3.987 3.987 0 0 1-3.986 3.987zm27.114 0a3.987 3.987 0 1 1 3.987-3.987A3.987 3.987 0 0 1 220.9 252zm27.114 0a3.987 3.987 0 1 1 3.988-3.987 3.987 3.987 0 0 1-3.987 3.987z" class="cls-2"/>
    </g>
</svg>
