<svg xmlns="http://www.w3.org/2000/svg" width="26" height="20" viewBox="0 0 26 20"><g><g><g><g><path fill="#0e71e6" d="M11.455 13.643l-4.43 1.258-1.837.379-.39 4.72 6.713-6.3z"/></g></g><g><g><path fill="#788beb" d="M15.118 13.652l-1.114-3.44L19.47 9.7z"/></g></g><g><g><path fill="#0b51ba" d="M16.921 13.485l.512-.111 2.338-.58 1.525-2.749z"/></g></g><g><g><path fill="#788beb" d="M18.435 15.712l-2.594-.133 3.796-1.425z"/></g></g><g><g><path fill="#5dc2f5" d="M22.287 12.573l-1.114 1.859.346-2.94z"/></g></g><g><g><path fill="#788beb" d="M22.264 9.933l3.05.112-1.803.946z"/></g></g><g><g><path fill="#6dd6f1" d="M23.467 5.936l-3.474.233 3.251 2.116z"/></g></g><g><g><path fill="#3eb9e6" d="M17.7 9.387l.612-3.551 4.431 3.05z"/></g></g><g><g><path fill="#3eb9e6" d="M22.598 2.538l-1.525.156 2.104 2.293z"/></g></g><g><g><path fill="#6dd6f1" d="M21.663 5.188l-1.981-2.36-2.127 2.783z"/></g></g><g><g><path fill="#3eb9e6" d="M25.86 6.169l-1.124-.1-.034-1.692z"/></g></g><g><g><path fill="#5dc2f5" d="M25.481 8.03l-1.202-.48.646 1.536z"/></g></g><g><g><path fill="#0b51ba" d="M23.166 15.646l-1.213-.1 1.503-.858z"/></g></g><g><g><path fill="#0b51ba" d="M25.548 12.85l-1.08-.044 1.002-1.191z"/></g></g><g><g><path fill="#4fcbf8" d="M11.4 0l2.894 7.37 1.336-3.385.734.69 1.191.936-1.925-1.626z"/></g></g><g><g><path fill="#0156d3" d="M5.689 12.016l-2.906 2.817 2.405.445z"/></g></g><g><g><path fill="#0b51ba" d="M7.024 14.9L5.69 12.015l-.501 3.262z"/></g></g><g><g><path fill="#0156d3" d="M7.904 9.867l-2.215 2.149 1.335 2.883z"/></g></g><g><g><path fill="#0e71e6" d="M7.904 9.867l-4.999-.59 2.784 2.738z"/></g></g><g><g><path fill="#3a57e8" d="M5.689 12.015L2.905 9.277.857 11.58z"/></g></g><g><g><path fill="#0b51ba" d="M5.689 12.016l-4.832-.434 1.926 3.25z"/></g></g><g><g><path fill="#0b51ba" d="M2.905 9.277L0 8.93l.857 2.65z"/></g></g><g><g><path fill="#0e71e6" d="M2.905 9.276L.802 6.058 0 8.93z"/></g></g><g><g><path fill="#5b74f0" d="M5.243 5.546l-4.441.512 2.103 3.217z"/></g></g><g><g><path fill="#7188f7" d="M3.418 2.783L.802 6.056l4.441-.512z"/></g></g><g><g><path fill="#687ff2" d="M7.904 9.865l-2.66-4.319-2.339 3.73z"/></g></g><g><g><path fill="#788beb" d="M10.153 3.52l-4.91 2.026 2.66 4.319z"/></g></g><g><g><path fill="#38b8ea" d="M6.869.79L5.243 5.544l4.91-2.026z"/></g></g><g><g><path fill="#3f9ed7" d="M6.746.69L3.417 2.783l1.826 2.76L6.87.79z"/></g></g><g><g><path fill="#5dc2f5" d="M11.4 0L6.745.69l.123.1 3.284 2.728z"/></g></g><g><g><path fill="#0db1e7" d="M11.4 0l-1.247 3.518 4.14 3.851z"/></g></g><g><g><path fill="#748afc" d="M14.294 7.371L10.153 3.52l-2.25 6.346z"/></g></g><g><g><path fill="#2d86ed" d="M14.294 7.372l-6.39 2.494 5.11-.323z"/></g></g><g><g><path fill="#0e71e6" d="M13.013 9.544l-5.11.323 3.552 3.774.056.056z"/></g></g><g><g><path fill="#3a57e8" d="M11.455 13.641L7.904 9.867l-.88 5.032z"/></g></g><g><g><path fill="#0b51ba" d="M13.236 10.212l-1.725 3.485 2.838-.156z"/></g></g><g><g><path fill="#6dd6f1" d="M16.888.824L11.399 0l4.965 4.675-.734-.69z"/></g></g><g><g><path fill="#5dc2f5" d="M16.888.824l.667 4.787 1.76-3.34z"/></g></g><g><g><path fill="#3eb9e6" d="M15.63 3.985l1.925 1.626-.667-4.787z"/></g></g><g><g><path fill="#3eb9e6" d="M14.294 7.372l2.56 1.803.579-2.95z"/></g></g><g><g><path fill="#6dd6f1" d="M15.63 3.987L14.294 7.37l3.261-1.759z"/></g></g><g><g><path fill="#788beb" d="M14.294 7.372l-1.28 2.171 3.84-.367z"/></g></g><g><g><path fill="#0b51ba" d="M7.024 14.901L4.798 20l3.73-3.496z"/></g></g><g><g><path fill="#0e71e6" d="M7.024 14.9l1.503 1.603 2.984-2.805-.056-.056z"/></g></g><g><g><path fill="#0e71e6" d="M11.455 13.643l-4.43 1.27-1.837.367-.39 4.72 6.713-6.3z"/></g></g><g><g><path fill="#788beb" d="M15.118 13.652l-1.114-3.44L19.47 9.7z"/></g></g><g><g><path fill="#0b51ba" d="M16.921 13.485l.512-.111 2.338-.58 1.525-2.749z"/></g></g><g><g><path fill="#788beb" d="M18.435 15.712l-2.594-.133 3.796-1.425z"/></g></g><g><g><path fill="#5dc2f5" d="M22.287 12.573l-1.114 1.859.346-2.94z"/></g></g><g><g><path fill="#788beb" d="M22.264 9.933l3.05.112-1.803.946z"/></g></g><g><g><path fill="#6dd6f1" d="M23.467 5.936l-3.474.233 3.251 2.116z"/></g></g><g><g><path fill="#3eb9e6" d="M17.7 9.387l.612-3.551 4.431 3.05z"/></g></g><g><g><path fill="#3eb9e6" d="M22.598 2.538l-1.525.156 2.104 2.293z"/></g></g><g><g><path fill="#6dd6f1" d="M21.663 5.188l-1.981-2.36-2.127 2.783z"/></g></g><g><g><path fill="#3eb9e6" d="M25.86 6.169l-1.124-.1-.034-1.692z"/></g></g><g><g><path fill="#5dc2f5" d="M25.481 8.03l-1.202-.48.646 1.536z"/></g></g><g><g><path fill="#0b51ba" d="M23.166 15.646l-1.213-.1 1.503-.858z"/></g></g><g><g><path fill="#0b51ba" d="M25.548 12.85l-1.08-.044 1.002-1.191z"/></g></g><g><g><path fill="#4fcbf8" d="M11.4 0l2.894 7.37 1.336-3.385.734.69 1.191.936-1.925-1.626z"/></g></g><g><g><path fill="#0156d3" d="M5.689 12.016l-2.906 2.817 2.405.445z"/></g></g><g><g><path fill="#0b51ba" d="M7.024 14.91L5.69 12.017l-.501 3.262z"/></g></g><g><g><path fill="#0156d3" d="M7.904 9.867l-2.215 2.149 1.335 2.883z"/></g></g><g><g><path fill="#0e71e6" d="M7.904 9.867l-4.999-.59 2.784 2.738z"/></g></g><g><g><path fill="#3a57e8" d="M5.689 12.015L2.905 9.277.857 11.58z"/></g></g><g><g><path fill="#0b51ba" d="M5.689 12.016l-4.832-.434 1.926 3.25z"/></g></g><g><g><path fill="#0b51ba" d="M2.905 9.277L0 8.93l.857 2.65z"/></g></g><g><g><path fill="#0e71e6" d="M2.905 9.276L.802 6.058 0 8.93z"/></g></g><g><g><path fill="#5b74f0" d="M5.243 5.546l-4.441.512 2.103 3.217z"/></g></g><g><g><path fill="#7188f7" d="M3.418 2.783L.802 6.056l4.441-.512z"/></g></g><g><g><path fill="#687ff2" d="M7.904 9.865l-2.66-4.319-2.339 3.73z"/></g></g><g><g><path fill="#788beb" d="M10.153 3.52l-4.91 2.026 2.66 4.319z"/></g></g><g><g><path fill="#38b8ea" d="M6.869.79L5.243 5.544l4.91-2.026z"/></g></g><g><g><path fill="#3f9ed7" d="M6.746.69L3.417 2.783l1.826 2.76L6.87.79z"/></g></g><g><g><path fill="#5dc2f5" d="M11.4 0L6.745.69l.123.1 3.284 2.728z"/></g></g><g><g><path fill="#0db1e7" d="M11.4 0l-1.247 3.518 4.14 3.851z"/></g></g><g><g><path fill="#748afc" d="M14.294 7.371L10.153 3.52l-2.25 6.346z"/></g></g><g><g><path fill="#2d86ed" d="M14.294 7.372l-6.39 2.494 5.11-.323z"/></g></g><g><g><path fill="#0e71e6" d="M13.013 9.544l-5.11.323 3.552 3.774.056.056z"/></g></g><g><g><path fill="#3a57e8" d="M11.455 13.641L7.904 9.867l-.88 5.032z"/></g></g><g><g><path fill="#0b51ba" d="M13.236 10.212l-1.725 3.485 2.838-.156z"/></g></g><g><g><path fill="#6dd6f1" d="M16.888.824L11.399 0l4.965 4.675-.734-.69z"/></g></g><g><g><path fill="#5dc2f5" d="M16.888.824l.667 4.787 1.76-3.34z"/></g></g><g><g><path fill="#3eb9e6" d="M15.63 3.985l1.925 1.626-.667-4.787z"/></g></g><g><g><path fill="#3eb9e6" d="M14.294 7.372l2.56 1.803.579-2.95z"/></g></g><g><g><path fill="#6dd6f1" d="M15.63 3.987L14.294 7.37l3.261-1.759z"/></g></g><g><g><path fill="#788beb" d="M14.294 7.372l-1.28 2.171 3.84-.367z"/></g></g><g><g><path fill="#0b51ba" d="M7.024 14.912L4.798 20l3.73-3.496z"/></g></g><g><g><path fill="#0e71e6" d="M7.024 14.911l1.503 1.592 2.984-2.805-.056-.056z"/></g></g></g></g></svg>