<svg xmlns="http://www.w3.org/2000/svg" width="13" height="13" viewBox="0 0 13 13"><g><g><g><g><g><path fill="#353167" d="M8.635 5.354c0-.333.216-.602.482-.602.267 0 .483.27.483.602 0 .333-.216.603-.483.603-.266 0-.482-.27-.482-.603z"/></g><g><path fill="#353167" d="M10.248 1.29h-.616V.815a.474.474 0 1 0-.95 0v.475H6.525V.815a.474.474 0 1 0-.95 0v.475H3.44V.815a.474.474 0 1 0-.95 0v.475h-.592A1.9 1.9 0 0 0 0 3.188v7.402a1.9 1.9 0 0 0 1.898 1.897h3.63a.474.474 0 1 0 0-.948h-3.63a.95.95 0 0 1-.95-.95V3.189a.95.95 0 0 1 .95-.95h.593v.475a.474.474 0 1 0 .949 0V2.24h2.135v.474a.474.474 0 1 0 .949 0V2.24h2.159v.474a.474.474 0 1 0 .949 0V2.24h.616a.95.95 0 0 1 .95.949v2.704a.474.474 0 1 0 .948 0V3.188a1.9 1.9 0 0 0-1.898-1.898z"/></g><g><path fill="#353167" d="M8.893 11.412a2.18 2.18 0 0 1-2.177-2.178c0-1.2.977-2.177 2.177-2.177 1.201 0 2.178.977 2.178 2.177a2.18 2.18 0 0 1-2.178 2.178zm0-5.43A3.257 3.257 0 0 0 5.64 9.233a3.257 3.257 0 0 0 3.253 3.253 3.257 3.257 0 0 0 3.253-3.253 3.257 3.257 0 0 0-3.253-3.253z"/></g><g><path fill="#353167" d="M9.656 9.076h-.242v-.565a.538.538 0 0 0-1.076 0v1.103c0 .297.241.537.538.537h.78a.538.538 0 1 0 0-1.075z"/></g><g><path fill="#353167" d="M6.51 5.354a.603.603 0 1 1 1.206 0 .603.603 0 0 1-1.205 0z"/></g><g><path fill="#353167" d="M4.41 7.352c0-.266.27-.482.603-.482.333 0 .603.216.603.482 0 .267-.27.482-.603.482-.333 0-.602-.215-.602-.482z"/></g><g><path fill="#353167" d="M2.527 5.354c0-.333.216-.602.482-.602.267 0 .483.27.483.602 0 .333-.216.603-.483.603-.266 0-.482-.27-.482-.603z"/></g><g><path fill="#353167" d="M2.527 7.352a.482.482 0 1 1 .965 0 .482.482 0 0 1-.965 0z"/></g><g><path fill="#353167" d="M2.527 9.458a.482.482 0 1 1 .965 0 .482.482 0 0 1-.965 0z"/></g><g><path fill="#353167" d="M4.41 9.458c0-.266.27-.482.603-.482.333 0 .603.216.603.482 0 .267-.27.483-.603.483-.333 0-.602-.216-.602-.483z"/></g><g><path fill="#353167" d="M4.41 5.354a.603.603 0 1 1 1.206 0 .603.603 0 0 1-1.205 0z"/></g></g></g></g></g></svg>